<?xml version="1.0" standalone="no"?>
<!DOCTYPE svg PUBLIC "-//W3C//DTD SVG 20010904//EN"
 "http://www.w3.org/TR/2001/REC-SVG-20010904/DTD/svg10.dtd">
<svg version="1.0" xmlns="http://www.w3.org/2000/svg"
 width="512.000000pt" height="512.000000pt" viewBox="0 0 512.000000 512.000000"
 preserveAspectRatio="xMidYMid meet">
<metadata>
Created by potrace 1.14, written by Peter Selinger 2001-2017
</metadata>
<g transform="translate(0.000000,512.000000) scale(0.100000,-0.100000)"
fill="#000000" stroke="none">
<path d="M1031 5065 c-79 -30 -150 -60 -158 -66 -19 -17 -16 -53 7 -74 16 -15
25 -16 44 -7 22 10 24 8 29 -21 3 -18 8 -42 12 -53 5 -17 2 -23 -19 -28 -35
-9 -48 -36 -33 -67 14 -27 59 -38 82 -19 10 9 17 1 31 -35 17 -45 17 -46 -5
-66 -11 -11 -21 -25 -21 -32 0 -7 -22 -28 -48 -47 -76 -57 -313 -298 -394
-400 -78 -98 -168 -228 -168 -242 0 -4 -6 -5 -13 -3 -6 2 -27 6 -44 9 -37 5
-39 -1 -22 -68 10 -41 9 -47 -39 -142 -141 -281 -226 -573 -259 -884 -15 -139
-8 -503 11 -615 3 -16 8 -43 10 -60 18 -114 65 -314 86 -360 5 -11 12 -31 16
-45 25 -92 171 -412 221 -487 11 -15 41 -61 67 -101 l47 -73 -30 -34 c-67 -76
-47 -185 42 -232 23 -12 61 -17 128 -18 l96 -2 49 -48 c265 -258 545 -440 879
-571 64 -25 142 -62 175 -83 90 -59 185 -85 300 -84 135 1 229 1 445 0 236 -2
296 3 529 49 125 25 377 102 474 145 672 300 1153 805 1404 1474 16 44 31 88
33 98 2 9 6 20 9 25 8 14 58 207 62 240 1 18 5 36 8 40 4 7 12 50 21 124 27
208 27 560 1 713 -3 17 -8 44 -10 60 -3 17 -9 53 -15 80 -6 28 -13 61 -15 75
-55 276 -217 639 -401 900 -393 554 -990 936 -1640 1049 -33 6 -73 13 -90 16
-173 30 -561 27 -750 -5 -33 -6 -76 -13 -95 -16 -71 -11 -306 -76 -399 -110
-109 -41 -273 -115 -344 -156 -53 -31 -67 -29 -67 7 0 16 7 25 25 29 16 4 27
16 31 33 11 41 -7 58 -57 56 -43 -2 -45 -1 -66 42 -15 32 -18 45 -9 45 24 0
46 34 39 60 -13 53 -24 52 -202 -15z"/>
</g>
</svg>
